<?xml version="1.0" encoding="UTF-8"?>
<!DOCTYPE svg PUBLIC "-//W3C//DTD SVG 1.1//EN" "http://www.w3.org/Graphics/SVG/1.1/DTD/svg11.dtd">
<!-- Creator: CorelDRAW -->
<svg xmlns="http://www.w3.org/2000/svg" xml:space="preserve" width="100px" height="100px" version="1.1" style="shape-rendering:geometricPrecision; text-rendering:geometricPrecision; image-rendering:optimizeQuality; fill-rule:evenodd; clip-rule:evenodd"
viewBox="0 0 100 100"
 xmlns:xlink="http://www.w3.org/1999/xlink"
 xmlns:xodm="http://www.corel.com/coreldraw/odm/2003">
 <defs>
  <style type="text/css">
   <![CDATA[
    .fil0 {fill:#00A9FE;fill-rule:nonzero}
   ]]>
  </style>
 </defs>
 <g id="Camada_x0020_1">
  <metadata id="CorelCorpID_0Corel-Layer"/>
  <g id="_2474330515808">
   <path class="fil0" d="M32.16 75.29c-0.19,1.89 -0.63,3.58 -1.32,5.09 -0.68,1.52 -1.6,2.41 -2.71,2.69 -0.78,0.13 -1.54,0.06 -2.27,-0.21 -0.72,-0.28 -1.43,-0.65 -2.12,-1.17 -0.68,-0.52 -1.35,-1.07 -2.02,-1.72 -0.65,-0.62 -1.26,-1.27 -1.87,-1.96 -1.57,-1.34 -3.05,-2.78 -4.5,-4.33 -1.44,-1.55 -2.85,-3.1 -4.28,-4.65 -0.59,-0.58 -1.16,-1.2 -1.72,-1.78 -0.57,-0.62 -1.14,-1.21 -1.74,-1.72 -0.82,-1.07 -1.67,-2.07 -2.55,-2.93 -0.88,-0.89 -1.66,-1.99 -2.37,-3.33 -0.19,-0.34 -0.36,-0.65 -0.51,-0.96 -0.14,-0.28 -0.29,-0.66 -0.44,-1.04 -0.44,-0.61 -0.82,-1.34 -1.15,-2.16 -0.32,-0.86 -0.51,-1.82 -0.59,-2.89 0.23,-1.62 0.61,-3.1 1.18,-4.44 0.56,-1.34 1.19,-2.54 1.89,-3.68 0.71,-1.1 1.47,-2.13 2.26,-3.12 0.78,-0.97 1.52,-1.97 2.23,-2.96 1.72,-2.03 3.41,-3.96 5.13,-5.85 1.72,-1.89 3.48,-3.78 5.27,-5.74 0.94,-0.93 1.85,-1.93 2.77,-2.96 0.91,-1.06 1.83,-2.03 2.76,-2.92 0.94,-0.93 1.88,-1.72 2.85,-2.44 0.97,-0.69 2,-1.17 3.07,-1.45 1.05,0.35 1.97,1.28 2.75,2.82 0.78,1.55 1.18,3.3 1.22,5.23 0,1.1 -0.08,2.06 -0.21,2.92 -0.15,0.9 -0.53,1.62 -1.13,2.24 -3.05,3.4 -6.06,6.98 -9.06,10.66 -2.98,3.71 -6.03,7.32 -9.16,10.9 2.9,2.75 5.76,5.47 8.59,8.15 2.8,2.68 5.7,5.26 8.68,7.77 0.75,0.79 1.16,1.99 1.24,3.58 0.08,1.54 0.02,3.02 -0.17,4.36z"/>
   <path class="fil0" d="M66.51 2.9c-0.11,1.62 -0.32,3.15 -0.64,4.62 -0.3,1.45 -0.65,2.95 -1.02,4.48 -0.82,3.3 -1.67,6.52 -2.57,9.65 -2.95,11.32 -6.06,22.46 -9.32,33.44 -3.28,10.94 -6.67,21.87 -10.23,32.76 -0.45,1.13 -0.92,2.38 -1.38,3.78 -0.46,1.37 -0.97,2.7 -1.53,3.95 -0.55,1.25 -1.16,2.27 -1.82,3.1 -0.66,0.82 -1.44,1.27 -2.34,1.32 -0.54,-0.2 -0.96,-0.72 -1.26,-1.57 -0.29,-0.85 -0.42,-1.75 -0.36,-2.68 0.14,-2.72 0.48,-5.37 1.04,-7.9 0.55,-2.55 1.18,-5.02 1.88,-7.47 0.74,-2.82 1.5,-5.6 2.32,-8.27 0.8,-2.7 1.61,-5.45 2.4,-8.27 0.89,-3.43 1.83,-6.83 2.82,-10.23 1,-3.4 1.92,-6.8 2.78,-10.22 1.52,-5.02 3.07,-10.02 4.64,-15 1.57,-4.97 3.22,-9.87 4.95,-14.64 0.6,-1.53 1.14,-3.05 1.64,-4.63 0.48,-1.55 1.02,-3.07 1.62,-4.52 0.24,-0.6 0.53,-1.2 0.87,-1.8 0.34,-0.63 0.7,-1.15 1.07,-1.62 0.39,-0.45 0.79,-0.78 1.22,-0.98 0.45,-0.2 0.89,-0.18 1.35,0.08 0.35,0.24 0.73,0.52 1.15,0.82 0.43,0.32 0.67,0.92 0.72,1.8z"/>
   <path class="fil0" d="M100 51.08c-0.23,1.66 -0.61,3.2 -1.15,4.58 -0.53,1.37 -1.16,2.68 -1.87,3.88 -0.7,1.21 -1.45,2.38 -2.23,3.48 -0.78,1.1 -1.54,2.16 -2.25,3.16 -1.78,2.1 -3.51,4.2 -5.19,6.29 -1.68,2.14 -3.42,4.17 -5.21,6.12 -0.92,0.93 -1.87,1.93 -2.81,2.96 -0.95,1.03 -1.91,2.03 -2.86,2.93 -0.95,0.89 -1.93,1.68 -2.94,2.37 -0.99,0.65 -2.02,1.06 -3.07,1.2 -1.03,-0.34 -1.95,-1.27 -2.71,-2.82 -0.77,-1.55 -1.19,-3.3 -1.26,-5.23 0.04,-0.96 0.17,-1.92 0.4,-2.88 0.21,-0.97 0.59,-1.69 1.11,-2.17 3.13,-3.68 6.2,-7.5 9.19,-11.38 3,-3.89 6.05,-7.81 9.15,-11.69 -2.91,-3.03 -5.77,-6.02 -8.55,-8.98 -2.81,-2.96 -5.65,-5.91 -8.55,-8.87 -0.39,-0.31 -0.65,-0.79 -0.84,-1.41 -0.19,-0.59 -0.33,-1.24 -0.4,-1.96 -0.08,-0.69 -0.1,-1.45 -0.06,-2.2 0.04,-0.79 0.09,-1.52 0.17,-2.17 0.23,-1.75 0.65,-3.4 1.3,-4.99 0.63,-1.58 1.52,-2.44 2.67,-2.57 2.35,0.55 4.52,1.78 6.51,3.78 2,1.96 4,3.95 6.01,5.88 2.25,2.23 4.45,4.64 6.64,7.22 2.18,2.58 4.26,5.4 6.22,8.39 0.16,0.34 0.29,0.69 0.42,1.07 0.14,0.38 0.31,0.69 0.54,0.96 0.4,0.76 0.78,1.51 1.09,2.27 0.32,0.76 0.49,1.68 0.53,2.78z"/>
  </g>
 </g>
</svg>
